<svg width="187" height="231" viewBox="0 0 187 231" fill="none" xmlns="http://www.w3.org/2000/svg">
<path d="M157.719 113.102V82.2968C157.719 47.1215 128.939 18.3417 93.7637 18.3417C58.4815 18.3417 29.8083 47.0149 29.8083 82.2968V113.102C29.8083 119.604 27.037 129.517 23.7326 135.06L11.4745 155.419C3.90652 167.997 9.12952 181.961 22.9865 186.651C68.9275 202 118.493 202 164.434 186.651C177.332 182.387 182.981 167.144 175.946 155.419" stroke="#292D32" stroke-width="15.9888" stroke-miterlimit="10" stroke-linecap="round"/>
<path d="M113.476 21.4306C110.172 20.4712 106.761 19.7251 103.243 19.2987C93.0105 18.0196 83.204 18.7658 74.0371 21.4306C77.1283 13.5428 84.8029 8 93.7566 8C102.71 8 110.385 13.5428 113.476 21.4306Z" stroke="#292D32" stroke-width="15.9888" stroke-miterlimit="10" stroke-linecap="round" stroke-linejoin="round"/>
<path d="M125.73 190.486C125.73 208.074 111.34 222.464 93.7521 222.464C85.0116 222.464 76.9106 218.84 71.155 213.084C65.399 207.328 61.7749 199.227 61.7749 190.486" stroke="#292D32" stroke-width="15.9888" stroke-miterlimit="10"/>
</svg>
