<svg width="171" height="171" viewBox="0 0 171 171" fill="none" xmlns="http://www.w3.org/2000/svg">
<path d="M92.625 35.625H149.625" stroke="black" stroke-width="14.25" stroke-linecap="round" stroke-linejoin="round"/>
<path d="M92.625 64.125H128.25" stroke="black" stroke-width="14.25" stroke-linecap="round" stroke-linejoin="round"/>
<path d="M92.625 106.875H149.625" stroke="black" stroke-width="14.25" stroke-linecap="round" stroke-linejoin="round"/>
<path d="M92.625 135.375H128.25" stroke="black" stroke-width="14.25" stroke-linecap="round" stroke-linejoin="round"/>
<path d="M57 28.5H28.5C24.565 28.5 21.375 31.69 21.375 35.625V64.125C21.375 68.06 24.565 71.25 28.5 71.25H57C60.935 71.25 64.125 68.06 64.125 64.125V35.625C64.125 31.69 60.935 28.5 57 28.5Z" stroke="black" stroke-width="14.25" stroke-linecap="round" stroke-linejoin="round"/>
<path d="M57 99.75H28.5C24.565 99.75 21.375 102.94 21.375 106.875V135.375C21.375 139.31 24.565 142.5 28.5 142.5H57C60.935 142.5 64.125 139.31 64.125 135.375V106.875C64.125 102.94 60.935 99.75 57 99.75Z" stroke="black" stroke-width="14.25" stroke-linecap="round" stroke-linejoin="round"/>
</svg>
