<svg width="171" height="171" viewBox="0 0 171 171" fill="none" xmlns="http://www.w3.org/2000/svg">
<path fill-rule="evenodd" clip-rule="evenodd" d="M17.5583 33.5996L4.56324 20.6046C4.18958 20.23 3.71311 19.9747 3.19422 19.8713C2.67533 19.7678 2.1374 19.8207 1.64863 20.0233C1.15985 20.2259 0.742243 20.5691 0.448739 21.0093C0.155236 21.4495 -0.00094238 21.967 4.27817e-06 22.4961V61.46C4.27817e-06 62.9347 1.19692 64.1316 2.67169 64.1316H41.6355C42.1646 64.1326 42.6821 63.9764 43.1223 63.6829C43.5626 63.3894 43.9057 62.9718 44.1083 62.483C44.311 61.9942 44.3639 61.4563 44.2604 60.9374C44.1569 60.4185 43.9017 59.9421 43.5271 59.5684L29.0145 45.0558C38.4747 31.8433 52.2678 22.3655 67.9939 18.2717C83.72 14.1779 100.384 15.7271 115.085 22.6498C129.787 29.5724 141.597 41.4304 148.459 56.1604C155.322 70.8905 156.803 87.5603 152.645 103.27C148.487 118.979 138.953 132.733 125.701 142.139C112.45 151.545 96.3208 156.008 80.1193 154.751C63.9179 153.493 48.6699 146.596 37.0285 135.258C25.3871 123.92 18.089 108.86 16.4041 92.6973C16.1859 90.5815 15.1361 88.639 13.4857 87.2972C11.8353 85.9555 9.71942 85.3243 7.60362 85.5425C5.48781 85.7607 3.54536 86.8106 2.20358 88.461C0.861803 90.1114 0.230606 92.2272 0.448847 94.343C2.50485 114.127 11.3937 132.575 25.5852 146.511C39.7766 160.448 58.3828 169.001 78.2005 170.697C98.0182 172.394 117.808 167.129 134.162 155.808C150.516 144.488 162.412 127.819 167.801 108.673C173.191 89.5269 171.737 69.1008 163.689 50.9111C155.642 32.7215 141.505 17.9063 123.712 9.0162C105.92 0.126065 85.5839 -2.28283 66.2064 2.20421C46.8289 6.69126 29.6219 17.7935 17.5476 33.5996H17.5583ZM82.8222 42.7582C84.9479 42.7582 86.9866 43.6026 88.4897 45.1057C89.9928 46.6088 90.8372 48.6475 90.8372 50.7732V82.7479L112.51 91.4256C114.42 92.2581 115.93 93.8017 116.722 95.729C117.513 97.6564 117.522 99.8161 116.748 101.75C115.974 103.685 114.478 105.242 112.575 106.091C110.673 106.941 108.514 107.016 106.557 106.301L79.8406 95.6148C78.3548 95.0193 77.0813 93.9926 76.1842 92.667C75.2871 91.3413 74.8075 89.7775 74.8071 88.1768V50.7732C74.8071 48.6475 75.6516 46.6088 77.1547 45.1057C78.6578 43.6026 80.6965 42.7582 82.8222 42.7582Z" fill="black"/>
</svg>
