<svg width="171" height="209" viewBox="0 0 171 209" fill="none" xmlns="http://www.w3.org/2000/svg">
<path d="M53.4375 181.741H117.562V203.116H53.4375C23.94 203.116 0 179.176 0 149.678V53.4909H21.375V149.678C21.375 167.42 35.6963 181.741 53.4375 181.741ZM68.6138 36.4978C76.95 28.1616 76.95 14.5884 68.6138 6.25219C60.2775 -2.08406 46.7044 -2.08406 38.3681 6.25219C30.0319 14.5884 30.0319 28.1616 38.3681 36.4978C46.7044 44.9409 60.1706 44.9409 68.6138 36.4978ZM80.1562 74.8659C80.1562 63.1097 70.5375 53.4909 58.7812 53.4909H53.4375C41.6812 53.4909 32.0625 63.1097 32.0625 74.8659V138.991C32.0625 156.732 46.3838 171.053 64.125 171.053H118.311L155.717 208.46L171 193.177L116.814 138.991H80.1562V74.8659Z" fill="black"/>
</svg>
