<svg width="171" height="171" viewBox="0 0 171 171" fill="none" xmlns="http://www.w3.org/2000/svg">
<path d="M171 85.5C171 38.3895 132.611 0 85.5 0C38.3895 0 0 38.3895 0 85.5C0 110.295 10.6875 132.611 27.6165 148.257C27.6165 148.343 27.6165 148.343 27.531 148.428C28.386 149.283 29.412 149.967 30.267 150.736C30.78 151.164 31.2075 151.592 31.7205 151.934C33.2595 153.216 34.9695 154.413 36.594 155.61C37.1925 156.038 37.7055 156.38 38.304 156.807C39.9285 157.919 41.6385 158.945 43.434 159.885C44.0325 160.227 44.7165 160.655 45.315 160.997C47.025 161.937 48.8205 162.792 50.7015 163.561C51.3855 163.903 52.0695 164.246 52.7535 164.502C54.6345 165.272 56.5155 165.955 58.3965 166.554C59.0805 166.81 59.7645 167.067 60.4485 167.238C62.5005 167.836 64.5525 168.35 66.6045 168.863C67.203 169.034 67.8015 169.204 68.4855 169.29C70.8795 169.803 73.2735 170.145 75.753 170.402C76.095 170.402 76.437 170.487 76.779 170.573C79.686 170.829 82.593 171 85.5 171C88.407 171 91.314 170.829 94.1355 170.573C94.4775 170.573 94.8195 170.487 95.1615 170.402C97.641 170.145 100.035 169.803 102.429 169.29C103.027 169.204 103.626 168.948 104.31 168.863C106.362 168.35 108.5 167.922 110.466 167.238C111.15 166.981 111.834 166.725 112.518 166.554C114.399 165.87 116.366 165.272 118.161 164.502C118.845 164.246 119.529 163.903 120.213 163.561C122.008 162.792 123.804 161.937 125.6 160.997C126.284 160.655 126.882 160.227 127.481 159.885C129.191 158.859 130.901 157.919 132.611 156.807C133.209 156.465 133.722 156.038 134.32 155.61C136.03 154.413 137.655 153.216 139.194 151.934C139.707 151.506 140.135 151.078 140.648 150.736C141.588 149.967 142.529 149.198 143.384 148.428C143.384 148.343 143.384 148.343 143.298 148.257C160.313 132.611 171 110.295 171 85.5ZM127.737 127.993C104.567 112.432 66.6045 112.432 43.263 127.993C39.501 130.473 36.423 133.38 33.858 136.543C20.862 123.376 12.825 105.336 12.825 85.5C12.825 45.4005 45.4005 12.825 85.5 12.825C125.6 12.825 158.175 45.4005 158.175 85.5C158.175 105.336 150.138 123.376 137.142 136.543C134.663 133.38 131.499 130.473 127.737 127.993Z" fill="#292D32"/>
<path d="M85.5 42.1488C67.8015 42.1488 53.4375 56.5128 53.4375 74.2114C53.4375 91.5679 67.032 105.675 85.0725 106.188H85.842H86.4405H86.6115C103.883 105.59 117.477 91.5679 117.563 74.2114C117.563 56.5128 103.199 42.1488 85.5 42.1488Z" fill="#292D32"/>
</svg>
