<svg width="172" height="172" viewBox="0 0 172 172" fill="none" xmlns="http://www.w3.org/2000/svg">
<path d="M7.56831 59.4263C12.4273 59.4263 15.0433 56.7169 15.0433 51.7646V29.7131C15.0433 19.996 20.2759 15.0437 29.6198 15.0437H52.2315C57.0905 15.0437 59.8002 12.3336 59.8002 7.47503C59.8002 2.70975 57.0905 0 52.2315 0H29.3392C9.90451 0 0 9.62424 0 28.8723V51.7646C0 56.7169 2.70975 59.4263 7.56831 59.4263ZM163.983 59.4263C168.935 59.4263 171.552 56.7169 171.552 51.7646V28.8723C171.552 9.62424 161.834 0 142.212 0H119.413C114.461 0 111.751 2.70975 111.751 7.47503C111.751 12.3336 114.461 15.0437 119.413 15.0437H142.025C151.182 15.0437 156.508 19.996 156.508 29.7131V51.7646C156.508 56.7169 159.218 59.4263 163.983 59.4263ZM81.758 77.647V45.0371C81.758 42.7946 79.9828 40.9257 77.6466 40.9257H45.1304C42.7946 40.9257 41.019 42.7946 41.019 45.0371V77.647C41.019 79.8895 42.7946 81.6647 45.1304 81.6647H77.6466C79.9828 81.6647 81.758 79.8895 81.758 77.647ZM97.9228 49.0549H122.403V73.5355H97.9228V49.0549ZM115.302 66.4344V56.2497H105.118V66.4344H115.302ZM66.5277 66.4344V56.2497H56.2493V66.4344H66.5277ZM49.1482 97.9228H73.6288V122.403H49.1482V97.9228ZM129.318 101.1V90.915H119.133V101.1H129.318ZM101.193 101.1V90.915H91.0083V101.1H101.193ZM66.5277 115.209V105.024H56.2493V115.209H66.5277ZM115.302 115.209V105.024H105.024V115.209H115.302ZM119.413 171.458H142.212C161.834 171.458 171.552 161.741 171.552 142.493V119.694C171.552 114.742 168.843 112.032 163.983 112.032C159.125 112.032 156.508 114.742 156.508 119.694V141.745C156.508 151.463 151.182 156.415 142.025 156.415H119.413C114.461 156.415 111.751 159.125 111.751 163.983C111.751 168.749 114.461 171.458 119.413 171.458ZM29.3392 171.458H52.2315C57.0905 171.458 59.8002 168.749 59.8002 163.983C59.8002 159.125 57.0905 156.415 52.2315 156.415H29.6198C20.2759 156.415 15.0433 151.463 15.0433 141.745V119.694C15.0433 114.742 12.3336 112.032 7.56831 112.032C2.61606 112.032 0 114.742 0 119.694V142.493C0 161.834 9.90451 171.458 29.3392 171.458ZM101.193 129.318V119.133H91.0083V129.318H101.193ZM129.318 129.318V119.133H119.133V129.318H129.318ZM130.533 77.647V45.0371C130.533 42.7946 128.757 40.9257 126.421 40.9257H93.9047C91.5689 40.9257 89.7936 42.7946 89.7936 45.0371V77.647C89.7936 79.8895 91.5689 81.6647 93.9047 81.6647H126.421C128.757 81.6647 130.533 79.8895 130.533 77.647ZM49.1482 49.0549H73.6288V73.5355H49.1482V49.0549ZM81.758 126.421V93.8118C81.758 91.5693 79.9828 89.794 77.6466 89.794H45.1304C42.7946 89.794 41.019 91.5693 41.019 93.8118V126.421C41.019 128.664 42.7946 130.533 45.1304 130.533H77.6466C79.9828 130.533 81.758 128.664 81.758 126.421Z" fill="black"/>
</svg>
