<svg width="171" height="147" viewBox="0 0 171 147" fill="none" xmlns="http://www.w3.org/2000/svg">
<path d="M67.1786 134.357H31.5129C29.6341 134.357 27.8321 133.611 26.5036 132.282C25.175 130.954 24.4286 129.152 24.4286 127.273V91.6071C24.4286 89.9874 23.7852 88.434 22.6399 87.2887C21.4946 86.1434 19.9412 85.5 18.3215 85.5C16.7018 85.5 15.1484 86.1434 14.0031 87.2887C12.8578 88.434 12.2144 89.9874 12.2144 91.6071V127.273C12.2305 132.386 14.2689 137.286 17.8846 140.901C21.5003 144.517 26.3996 146.555 31.5129 146.571H67.1786C68.7984 146.571 70.3517 145.928 71.497 144.783C72.6424 143.637 73.2858 142.084 73.2858 140.464C73.2858 138.845 72.6424 137.291 71.497 136.146C70.3517 135.001 68.7984 134.357 67.1786 134.357Z" fill="black"/>
<path d="M152.679 85.5C151.059 85.5 149.506 86.1434 148.36 87.2887C147.215 88.434 146.571 89.9874 146.571 91.6071V127.273C146.571 129.152 145.825 130.954 144.497 132.282C143.168 133.611 141.366 134.357 139.487 134.357H103.821C102.202 134.357 100.648 135.001 99.5031 136.146C98.3578 137.291 97.7144 138.845 97.7144 140.464C97.7144 142.084 98.3578 143.637 99.5031 144.783C100.648 145.928 102.202 146.571 103.821 146.571H139.487C144.601 146.555 149.5 144.517 153.116 140.901C156.731 137.286 158.77 132.386 158.786 127.273V91.6071C158.786 89.9874 158.142 88.434 156.997 87.2887C155.852 86.1434 154.298 85.5 152.679 85.5Z" fill="black"/>
<path d="M103.821 12.2143H139.487C141.366 12.2143 143.168 12.9607 144.497 14.2892C145.825 15.6178 146.571 17.4197 146.571 19.2986V54.9643C146.571 56.584 147.215 58.1374 148.36 59.2827C149.506 60.428 151.059 61.0714 152.679 61.0714C154.298 61.0714 155.852 60.428 156.997 59.2827C158.142 58.1374 158.786 56.584 158.786 54.9643V19.2986C158.77 14.1852 156.731 9.28591 153.116 5.67021C149.5 2.05451 144.601 0.0161051 139.487 0H103.821C102.202 0 100.648 0.64343 99.5031 1.78874C98.3578 2.93405 97.7144 4.48743 97.7144 6.10714C97.7144 7.72686 98.3578 9.28023 99.5031 10.4255C100.648 11.5709 102.202 12.2143 103.821 12.2143Z" fill="black"/>
<path d="M18.3215 61.0714C19.9412 61.0714 21.4946 60.428 22.6399 59.2827C23.7852 58.1374 24.4286 56.584 24.4286 54.9643V19.2986C24.4286 17.4197 25.175 15.6178 26.5036 14.2892C27.8321 12.9607 29.6341 12.2143 31.5129 12.2143H67.1786C68.7984 12.2143 70.3517 11.5709 71.497 10.4255C72.6424 9.28023 73.2858 7.72686 73.2858 6.10714C73.2858 4.48743 72.6424 2.93405 71.497 1.78874C70.3517 0.64343 68.7984 0 67.1786 0H31.5129C26.3996 0.0161051 21.5003 2.05451 17.8846 5.67021C14.2689 9.28591 12.2305 14.1852 12.2144 19.2986V54.9643C12.2144 56.584 12.8578 58.1374 14.0031 59.2827C15.1484 60.428 16.7018 61.0714 18.3215 61.0714Z" fill="black"/>
<path d="M128.25 61.0714C129.87 61.0714 131.423 60.428 132.569 59.2827C133.714 58.1374 134.357 56.584 134.357 54.9643V43.7272C134.341 38.6138 132.303 33.7145 128.687 30.0988C125.071 26.4831 120.172 24.4447 115.059 24.4286H55.9416C50.8283 24.4447 45.929 26.4831 42.3133 30.0988C38.6976 33.7145 36.6592 38.6138 36.6431 43.7272V54.9643C36.6431 56.584 37.2865 58.1374 38.4318 59.2827C39.5771 60.428 41.1305 61.0714 42.7502 61.0714C44.3699 61.0714 45.9233 60.428 47.0686 59.2827C48.2139 58.1374 48.8574 56.584 48.8574 54.9643V43.7272C48.8574 41.8483 49.6037 40.0464 50.9323 38.7178C52.2609 37.3893 54.0628 36.6429 55.9416 36.6429H115.059C116.938 36.6429 118.74 37.3893 120.068 38.7178C121.397 40.0464 122.143 41.8483 122.143 43.7272V54.9643C122.143 56.584 122.786 58.1374 123.932 59.2827C125.077 60.428 126.63 61.0714 128.25 61.0714Z" fill="black"/>
<path d="M42.7502 85.5C41.1305 85.5 39.5771 86.1434 38.4318 87.2887C37.2865 88.434 36.6431 89.9874 36.6431 91.6071V102.844C36.6592 107.958 38.6976 112.857 42.3133 116.473C45.929 120.088 50.8283 122.127 55.9416 122.143H115.059C120.172 122.127 125.071 120.088 128.687 116.473C132.303 112.857 134.341 107.958 134.357 102.844V91.6071C134.357 89.9874 133.714 88.434 132.569 87.2887C131.423 86.1434 129.87 85.5 128.25 85.5C126.63 85.5 125.077 86.1434 123.932 87.2887C122.786 88.434 122.143 89.9874 122.143 91.6071V102.844C122.143 104.723 121.397 106.525 120.068 107.854C118.74 109.182 116.938 109.929 115.059 109.929H55.9416C54.0628 109.929 52.2609 109.182 50.9323 107.854C49.6037 106.525 48.8574 104.723 48.8574 102.844V91.6071C48.8574 89.9874 48.2139 88.434 47.0686 87.2887C45.9233 86.1434 44.3699 85.5 42.7502 85.5Z" fill="black"/>
<path d="M164.893 67.1786H6.10714C4.48743 67.1786 2.93405 67.822 1.78874 68.9673C0.643429 70.1126 0 71.666 0 73.2857C0 74.9054 0.643429 76.4588 1.78874 77.6041C2.93405 78.7495 4.48743 79.3929 6.10714 79.3929H164.893C166.513 79.3929 168.066 78.7495 169.211 77.6041C170.357 76.4588 171 74.9054 171 73.2857C171 71.666 170.357 70.1126 169.211 68.9673C168.066 67.822 166.513 67.1786 164.893 67.1786Z" fill="black"/>
</svg>
