<svg width="172" height="172" viewBox="0 0 172 172" fill="none" xmlns="http://www.w3.org/2000/svg">
<path d="M85.7762 0C38.4078 0 0 38.4078 0 85.7762C0 133.145 38.4078 171.552 85.7762 171.552C133.145 171.552 171.552 133.145 171.552 85.7762C171.552 38.4078 133.145 0 85.7762 0ZM85.7762 157.001C46.4494 157.001 14.5513 125.103 14.5513 85.7762C14.5513 46.4494 46.4494 14.5513 85.7762 14.5513C125.103 14.5513 157.001 46.4494 157.001 85.7762C157.001 125.103 125.103 157.001 85.7762 157.001ZM94.9091 81.3342L90.0459 80.2046V54.4909C97.3215 55.4865 101.821 60.0434 102.587 65.6341C102.683 66.4 103.334 66.9552 104.099 66.9552H112.696C113.596 66.9552 114.304 66.1702 114.228 65.2703C113.06 53.3421 103.238 45.6835 90.1225 44.3624V38.1015C90.1225 37.259 89.4332 36.5698 88.5908 36.5698H83.2106C82.3681 36.5698 81.6789 37.259 81.6789 38.1015V44.4198C68.1232 45.7409 57.516 53.2272 57.516 67.2041C57.516 80.1472 67.051 86.3889 77.0646 88.7822L81.7938 89.9884V117.31C73.331 116.181 68.5827 111.662 67.6062 105.574C67.4913 104.846 66.8404 104.31 66.0936 104.31H57.248C56.3481 104.31 55.6397 105.076 55.7163 105.976C56.5778 116.506 64.5619 126.194 81.6023 127.439V133.451C81.6023 134.293 82.2916 134.983 83.134 134.983H88.5716C89.414 134.983 90.1033 134.293 90.1033 133.432L90.065 127.362C105.057 126.041 115.779 118.019 115.779 103.621C115.76 90.3331 107.316 84.3977 94.9091 81.3342ZM81.7746 78.2325C80.7024 77.9262 79.8025 77.639 78.9026 77.2752C72.4311 74.9393 69.4251 71.1675 69.4251 66.3043C69.4251 59.3541 74.6904 55.3908 81.7746 54.4909V78.2325ZM90.0459 117.368V91.7691C90.6394 91.9414 91.1755 92.0754 91.7308 92.1903C100.787 94.9474 103.831 98.7767 103.831 104.655C103.831 112.141 98.2023 116.64 90.0459 117.368Z" fill="black"/>
</svg>
